<svg xmlns="http://www.w3.org/2000/svg" version="1.1" xmlnsXlink="http://www.w3.org/1999/xlink" xmlnsSvgjs="http://svgjs.com/svgjs" width="512" height="512" x="0" y="0" viewBox="0 0 512.032 512.032" style="enable-background:new 0 0 512 512" xmlSpace="preserve" class=""><g><g xmlns="http://www.w3.org/2000/svg"><g id="Page-1_25_"><g id="_x30_26---Braces" transform="translate(-1 -1)"><path id="Path_75_" clipRule="evenodd" d="m94.904 171.701c0 4.713 3.821 8.533 8.533 8.533 4.713 0 8.533-3.821 8.533-8.533h17.067c0 4.713 3.821 8.533 8.533 8.533 4.713 0 8.533-3.821 8.533-8.533 4.713 0 8.533-3.821 8.533-8.533s-3.821-8.533-8.533-8.533c0-4.713-3.821-8.533-8.533-8.533-4.713 0-8.533 3.821-8.533 8.533h-17.067c0-4.713-3.821-8.533-8.533-8.533-4.713 0-8.533 3.821-8.533 8.533-4.713 0-8.533 3.821-8.533 8.533s3.82 8.533 8.533 8.533z" fillRule="evenodd" fill="#22d3ee" dataOriginal="#000000" class=""></path><path id="Shape_52_" d="m427.704 444.767c28.263-.033 51.167-22.937 51.2-51.2v-133.794c-.116-19.502 5.955-38.539 17.34-54.374 17.421-23.495 21.595-54.276 11.06-81.562s-34.312-47.275-63.002-52.966c-15.037-2.904-30.576-1.755-45.022 3.328-3.684 1.327-7.716 1.327-11.401 0-14.447-5.081-29.985-6.23-45.022-3.328-34.771 6.741-61.696 34.373-67.533 69.308-.766 4.78-1.137 9.615-1.109 14.455h-34.355c.03-4.858-.341-9.71-1.109-14.507-5.84-34.931-32.764-62.56-67.533-69.299-15.034-2.904-30.57-1.755-45.013 3.328-3.688 1.323-7.721 1.323-11.409 0-14.447-5.081-29.985-6.23-45.022-3.328-28.701 5.678-52.492 25.664-63.037 52.954s-6.374 58.081 11.052 81.582c11.405 15.84 17.491 34.89 17.382 54.409v133.794c-.037 13.695 5.452 26.825 15.223 36.42 9.759 9.588 22.928 14.904 36.608 14.78 13.905-.311 25.005-11.692 24.969-25.6v-84.412c-.157-4.381 2.777-8.272 7.031-9.327 2.508-.425 5.076.274 7.023 1.911 1.907 1.618 3.009 3.992 3.012 6.494v85.333c.184 14.062 11.538 25.416 25.6 25.6 28.263-.033 51.167-22.937 51.2-51.2v-133.793c-.116-19.502 5.955-38.539 17.34-54.374 7.416-9.992 12.532-21.499 14.985-33.698h37.751c2.446 12.186 7.554 23.681 14.959 33.664 11.399 15.842 17.479 34.892 17.365 54.409v133.794c-.037 13.695 5.452 26.825 15.223 36.42 9.767 9.586 22.94 14.902 36.625 14.78 13.896-.325 24.983-11.7 24.951-25.6v-84.412c-.157-4.381 2.777-8.272 7.031-9.327 2.508-.425 5.076.274 7.023 1.911 1.907 1.618 3.009 3.992 3.012 6.494v85.333c.186 14.062 11.54 25.417 25.602 25.6zm-218.249-249.523c-13.55 18.779-20.792 41.372-20.685 64.529v133.794c0 18.851-15.282 34.133-34.133 34.133-4.664-.117-8.417-3.87-8.533-8.533v-85.333c0-14.138-11.462-25.6-25.6-25.6-1.407.002-2.811.119-4.198.35-12.539 2.376-21.563 13.411-21.402 26.172v84.412c.068 4.576-3.533 8.367-8.107 8.533-9.154.235-17.996-3.333-24.422-9.856-6.508-6.399-10.162-15.151-10.138-24.277v-133.795c.105-23.171-7.146-45.777-20.71-64.563-13.915-18.777-17.257-43.368-8.858-65.178s27.372-37.808 50.287-42.402c12.062-2.336 24.529-1.423 36.122 2.645 7.387 2.615 15.448 2.615 22.835 0 11.593-4.069 24.06-4.982 36.122-2.645 27.748 5.393 49.23 27.45 53.888 55.33.605 3.861.89 7.766.853 11.674h-34.005v-17.067c0-14.138-11.462-25.6-25.6-25.6h-85.334c-14.138 0-25.6 11.462-25.6 25.6v17.067h-8.533c-4.713 0-8.533 3.821-8.533 8.533s3.821 8.533 8.533 8.533h8.533v17.067c0 14.138 11.462 25.6 25.6 25.6h85.333c14.138 0 25.6-11.462 25.6-25.6v-17.067h31.915c-2.183 8.502-5.997 16.498-11.23 23.544zm-140.151-57.677c0-4.713 3.82-8.533 8.533-8.533h85.333c4.713 0 8.533 3.82 8.533 8.533v51.2c0 4.713-3.821 8.533-8.533 8.533h-85.333c-4.713 0-8.533-3.821-8.533-8.533zm324.267 170.667c-1.407.002-2.811.119-4.198.35-12.539 2.376-21.563 13.411-21.402 26.172v84.412c.068 4.576-3.534 8.367-8.107 8.533-9.154.238-17.998-3.331-24.422-9.856-6.508-6.399-10.162-15.151-10.138-24.277v-133.795c.105-23.171-7.146-45.777-20.71-64.563-5.226-7.035-9.031-15.02-11.204-23.509h31.915v17.067c0 14.138 11.462 25.6 25.6 25.6h85.333c14.138 0 25.6-11.462 25.6-25.6v-17.067h8.533c4.713 0 8.533-3.821 8.533-8.533s-3.82-8.533-8.533-8.533h-8.533v-17.067c0-14.138-11.462-25.6-25.6-25.6h-85.333c-14.138 0-25.6 11.462-25.6 25.6v17.067h-34.039c-.036-3.908.249-7.812.853-11.674 4.658-27.881 26.14-49.937 53.888-55.33 12.065-2.336 24.534-1.423 36.13 2.645 7.383 2.62 15.443 2.62 22.827 0 11.593-4.069 24.06-4.982 36.122-2.645 22.926 4.591 41.907 20.595 50.306 42.416 8.399 21.82 5.046 46.421-8.885 65.198-13.544 18.781-20.78 41.374-20.668 64.529v133.794c0 18.851-15.282 34.133-34.133 34.133-4.664-.117-8.417-3.87-8.533-8.533v-85.333c-.002-14.139-11.464-25.601-25.602-25.601zm51.2-119.467c0 4.713-3.82 8.533-8.533 8.533h-85.333c-4.713 0-8.533-3.821-8.533-8.533v-51.2c0-4.713 3.82-8.533 8.533-8.533h85.333c4.713 0 8.533 3.82 8.533 8.533z" fill="#22d3ee" dataOriginal="#000000" class=""></path><path id="Path_74_" clipRule="evenodd" d="m419.171 154.634c0-4.713-3.82-8.533-8.533-8.533s-8.533 3.821-8.533 8.533h-17.067c0-4.713-3.82-8.533-8.533-8.533s-8.533 3.821-8.533 8.533c-4.713 0-8.533 3.821-8.533 8.533s3.82 8.533 8.533 8.533c0 4.713 3.82 8.533 8.533 8.533s8.533-3.821 8.533-8.533h17.067c0 4.713 3.82 8.533 8.533 8.533s8.533-3.821 8.533-8.533c4.713 0 8.533-3.821 8.533-8.533s-3.821-8.533-8.533-8.533z" fillRule="evenodd" fill="#22d3ee" dataOriginal="#000000" class=""></path></g></g></g></g></svg>