<svg xmlns="http://www.w3.org/2000/svg" version="1.1" xmlnsXlink="http://www.w3.org/1999/xlink" xmlnsSvgjs="http://svgjs.com/svgjs" width="512" height="512" x="0" y="0" viewBox="0 0 512 512" style="enable-background:new 0 0 512 512" xmlSpace="preserve" class=""><g><g xmlns="http://www.w3.org/2000/svg"><g><path d="m419.691 352.696c-.457-4.111-4.143-7.082-8.27-6.618-4.112.456-7.074 4.159-6.618 8.27.64 5.769 1.3 11.083 2.018 16.245 1.383 9.923 2.226 18.484 2.599 26.444l-23.876 5.182c-9.966 2.163-17.756 10.01-19.847 19.991l-5.9 28.165c-.884 4.223-.694 8.638.549 12.767l8.732 29.019c-9.852 5.927-19.048 6.413-27.38 1.429-16.655-9.96-15.323-37.351-14.252-59.36.234-4.81.455-9.354.478-13.495.089-16.556-2.158-31.807-6.678-45.329-9.6-28.723-35.223-47.281-65.275-47.28-30.055.001-55.677 18.563-65.275 47.289-4.519 13.523-6.765 28.772-6.675 45.321.022 4.14.243 8.684.477 13.495 1.071 22.009 2.403 49.4-14.251 59.359-6.477 3.874-13.199 4.48-20.555 1.852-11.053-3.948-31.676-21.647-40.841-47.097-9.303-25.832-6.879-55.121-3.729-77.752 2.607-18.722 4.183-37.881 5.706-56.409.43-5.222.859-10.444 1.311-15.659.7-8.08-1.696-16.036-6.747-22.401l-.069-.088c-21.352-26.894-35.902-51.76-44.482-76.017-1.38-3.9-5.661-5.944-9.559-4.563-3.899 1.379-5.943 5.659-4.564 9.559 9.141 25.845 24.473 52.123 46.87 80.333l.069.086c2.663 3.356 3.926 7.546 3.558 11.799-.453 5.237-.885 10.48-1.316 15.724-1.507 18.321-3.066 37.266-5.614 55.571-3.388 24.336-5.942 55.978 4.472 84.893 6.12 16.996 25.079 47.264 49.895 56.128 4.583 1.637 9.166 2.452 13.671 2.452 6.805 0 13.434-1.86 19.612-5.554 24.364-14.571 22.723-48.309 21.525-72.943-.226-4.644-.439-9.031-.46-12.848-.081-14.905 1.905-28.528 5.902-40.492 9.129-27.321 32.366-37.056 51.068-37.057 18.701-.001 41.937 9.731 51.068 37.049 3.998 11.962 5.986 25.589 5.906 40.5-.02 3.816-.234 8.203-.46 12.847-1.199 24.635-2.84 58.373 21.525 72.944 14.812 8.857 31.966 7.023 48.306-5.165 12.826-9.567 14.925-23.56 16.611-34.803.708-4.723 1.377-9.184 2.697-12.85 1.849-5.135 5.45-10.767 9.264-16.73 6.841-10.696 13.914-21.756 13.707-33.989v-.001c-.175-10.327-1.108-21.251-2.935-34.378-.7-5.026-1.343-10.204-1.968-15.835zm-21.423 76.131c-4.09 6.396-8.32 13.009-10.738 19.725-1.822 5.058-2.633 10.47-3.418 15.704-.389 2.594-.921 4.989-.362 7.603.89 4.458.349 8.725-1.43 12.324l-7.63-25.358c-.524-1.74-.604-3.601-.231-5.38l5.9-28.163c.881-4.206 4.164-7.513 8.363-8.424l18.658-4.049c-2.19 5.194-5.687 10.662-9.112 16.018z" fill="#22d3ee" dataOriginal="#000000" class=""></path><path d="m471.118 109.885c-2.521-10.932-5.792-21.45-9.723-31.262-9.189-22.94-23.5-42.328-41.384-56.066-19.212-14.757-42.148-22.557-66.33-22.557-23.822 0-46.557 7.397-65.747 21.392-19.118 13.942-44.807 13.942-63.924 0-19.19-13.995-41.925-21.392-65.747-21.392-14.37 0-28.521 2.793-41.727 8.286-8.782 3.652-17.062 8.479-24.604 14.272-17.884 13.738-32.195 33.125-41.384 56.066-3.93 9.809-7.201 20.326-9.722 31.261-4.569 19.814-5.519 39.873-2.824 59.619.559 4.097 4.329 6.965 8.434 6.408 4.098-.56 6.967-4.335 6.408-8.434-2.45-17.943-1.582-36.187 2.578-54.226 2.349-10.186 5.388-19.963 9.031-29.057 8.192-20.449 20.85-37.655 36.605-49.757 11.224-8.622 23.923-14.48 37.428-17.37l11.416 31.712-12.987 41.951-54.205 42.74c-3.248 2.561-3.805 7.271-1.244 10.519 1.478 1.875 3.671 2.853 5.886 2.853 1.623 0 3.259-.526 4.632-1.609l46.861-36.948 3.315 13.72c.662 2.739 2.804 4.875 5.545 5.527l25.076 5.97c.584.139 1.167.205 1.741.205 3.388 0 6.46-2.316 7.279-5.756.958-4.024-1.527-8.063-5.551-9.021l-20.609-4.907-4.496-18.608 13.807-44.6c.481-1.554.443-3.222-.108-4.752l-11.147-30.964c1.516-.072 3.037-.119 4.566-.119 20.628 0 40.311 6.403 56.921 18.515 24.397 17.793 57.181 17.792 81.576 0 16.61-12.113 36.293-18.515 56.921-18.515 20.853 0 40.634 6.729 57.205 19.458 15.755 12.103 28.413 29.309 36.604 49.757 3.644 9.098 6.683 18.874 9.031 29.057 8.296 35.969 3.578 71.429-14.86 108.776l-24.42-17.294v-45.085c0-4.136-3.353-7.49-7.49-7.49s-7.49 3.353-7.49 7.49v40.702l-40.74-3.975c-1.277-.125-2.558.08-3.729.592l-38.211 16.718c-3.79 1.658-5.518 6.074-3.86 9.864 1.231 2.813 3.98 4.489 6.865 4.489 1.003 0 2.022-.202 2.998-.63l36.423-15.936 45.038 4.394 27.502 19.475c-7.606 13.264-16.892 26.792-27.928 40.694l-.066.083c-5.052 6.366-7.448 14.321-6.747 22.404.618 7.138 1.192 14.266 1.785 21.403.325 3.912 3.6 6.872 7.456 6.872 4.161 0 7.819-3.928 7.473-8.109-.592-7.148-1.17-14.286-1.791-21.46-.368-4.253.895-8.443 3.56-11.8l.065-.082c12.318-15.516 23.653-31.941 33.013-49.385 23.148-43.143 29.428-84.116 19.751-126.078z" fill="#22d3ee" dataOriginal="#000000" class=""></path></g></g></g></svg>