<svg xmlns="http://www.w3.org/2000/svg" version="1.1"  xmlnsXlink="http://www.w3.org/1999/xlink" xmlnsSvgjs="http://svgjs.com/svgjs" width="512" height="512" x="0" y="0" viewBox="0 0 64 64" style="enable-background:new 0 0 512 512" xmlSpace="preserve" class=""><g><g xmlns="http://www.w3.org/2000/svg" id="Outline"><g id="Outline-2" dataName="Outline"><path d="M2,37V57a5.006,5.006,0,0,0,5,5H57a5.006,5.006,0,0,0,5-5V37a5.006,5.006,0,0,0-5-5H55.161a18.637,18.637,0,0,0,1.072-2.3,14.679,14.679,0,0,0-6-17.887C45.606,9.063,38.476,8.666,32,15.51a21.926,21.926,0,0,0-1.849-1.729C35,8.411,42.4,5.8,52.18,5.987A3,3,0,0,0,55,8h4a3,3,0,0,0,0-6H55a3,3,0,0,0-2.812,1.987C41.745,3.781,33.8,6.665,28.553,12.564a13.463,13.463,0,0,0-14.784-.747,14.679,14.679,0,0,0-6,17.885A18.67,18.67,0,0,0,8.839,32H7A5.006,5.006,0,0,0,2,37ZM55,4h4a1,1,0,0,1,0,2H55a1,1,0,0,1,0-2ZM14.793,13.535a11.091,11.091,0,0,1,5.669-1.56,12.411,12.411,0,0,1,6.816,2.15A30.167,30.167,0,0,0,21.9,28H16.442a3,3,0,0,0-2.552,4.575c2.412,3.9,4.648,7.923,4.649,12.542,0,2.373-.037,6.306,3.276,6.871,2.206.322,3.021-2.186,4.089-6.373.91-3.814,2.206-7.884,6.1-7.884s5.186,4.07,6.1,7.9c1.1,4.11,1.737,6.662,4.085,6.358,3.32-.514,3.275-4.5,3.276-6.871,0-4.619,2.237-8.643,4.65-12.542A3,3,0,0,0,47.558,28h-23.6a28.111,28.111,0,0,1,4.921-12.679,20.682,20.682,0,0,1,2.282,2.245c.908,1.821,1.965,4.309,6.582,4.349a1,1,0,0,0,0-2c-3.013,0-3.829-1.294-4.545-2.739,5.743-6.263,12-6.028,16.006-3.641A12.68,12.68,0,0,1,54.361,29a27.413,27.413,0,0,1-2.916,5.268,22.88,22.88,0,0,0-3.625,7.419,19.333,19.333,0,0,0-.359,3.595,16,16,0,0,1-.378,3.492c-.518,1.985-1.843,5.3-5.115,5.225-3.548-.08-4.644-3.316-5.806-7.874-.8-3.12-1.533-6.25-4.046-6.358-2.7-.117-3.454,3.171-4.278,6.358-1.162,4.558-2.259,7.782-5.806,7.874-3.222.084-4.6-3.24-5.115-5.225a16.008,16.008,0,0,1-.378-3.493,19.315,19.315,0,0,0-.359-3.594,22.88,22.88,0,0,0-3.625-7.419A27.427,27.427,0,0,1,9.638,29,12.68,12.68,0,0,1,14.793,13.535ZM41.9,50.01c-.273.041-.813-.775-1.855-4.86-.729-3.056-2.247-9.419-8.041-9.419s-7.312,6.363-8.037,9.405c-1.046,4.1-1.589,4.924-1.859,4.874-1.387-.146-1.584-2.81-1.565-4.833.047-5.226-2.5-9.7-4.949-13.655A1,1,0,0,1,16.442,30h5.224a44.5,44.5,0,0,0,.351,11.182,1,1,0,0,0,1.966-.363A43.934,43.934,0,0,1,23.715,30H47.558a1,1,0,0,1,.852,1.522c-2.448,3.956-4.993,8.429-4.949,13.655C43.478,47.2,43.291,49.908,41.9,50.01ZM10,34c.289.459.583.911.875,1.358a21.046,21.046,0,0,1,3.35,6.765,17.639,17.639,0,0,1,.311,3.23,17.75,17.75,0,0,0,.442,3.926c1.141,4.348,3.707,6.8,7.1,6.719,5.339-.123,6.7-5.475,7.7-9.38.573-2.247,1.129-4.845,2.224-4.845s1.651,2.6,2.224,4.845c1,3.905,2.358,9.258,7.7,9.38,3.391.078,5.957-2.372,7.1-6.719a17.686,17.686,0,0,0,.441-3.925,17.746,17.746,0,0,1,.312-3.231,21.046,21.046,0,0,1,3.35-6.765c.292-.447.586-.9.875-1.358h3a3,3,0,0,1,3,3V57a3,3,0,0,1-3,3H7a3,3,0,0,1-3-3V37a3,3,0,0,1,3-3Z" fill="#22d3ee" dataOriginal="#000000" class=""></path><circle cx="12" cy="21" r="1" fill="#22d3ee" dataOriginal="#000000" class=""></circle><path d="M14.8,18.71a7.646,7.646,0,0,1,4.681-2.686,1,1,0,1,0-.292-1.978,9.642,9.642,0,0,0-5.915,3.371A1,1,0,1,0,14.8,18.71Z" fill="#22d3ee" dataOriginal="#000000" class=""></path></g></g></g></svg>